# xmcd
#
# Track frame offsets: 
#        150
#        15966
#        35502
#        53284
#        77807
#        94333
#        128807
#        147074
#        171151
#        189901
#
# Disc length: 2794 seconds
#
# Revision: 0
# Processed by: cddbd v1.5.1PL2 Copyright (c) Steve Scherf et al.
# Submitted via: ExactAudioCopy v0.95b3
#
DISCID=710ae80a
DTITLE=Various Artist - Chill Out - Winter Selection
DYEAR=2005
DGENRE=Chill Out
TTITLE0=≈”øÌ/Winter sea
TTITLE1=∏Ò∑«/Wonderland
TTITLE2=Der E-Kreisel/Arendsee
TTITLE3=Jo Bunemann/Silver rain
TTITLE4=Adope/Utation
TTITLE5=DJ Kenneth Luo/DJ ken&Randonbeat
TTITLE6=Petersen/Get into motion now
TTITLE7=Mundoloco/Ngulf
TTITLE8=DJ ª∆∫∆/Fading steps
TTITLE9=Ice Tea (–¬∑‰“Ù¿÷)/A wishful way
EXTD=
EXTT0=
EXTT1=
EXTT2=
EXTT3=
EXTT4=
EXTT5=
EXTT6=
EXTT7=
EXTT8=
EXTT9=
PLAYORDER=
